<svg xmlns="http://www.w3.org/2000/svg" width="58" height="56" viewBox="0 0 58 56">
    <defs>
        <linearGradient id="aa" x1="50%" x2="50%" y1="14.388%" y2="83.008%">
            <stop offset="0%" stop-color="#F3CF57"/>
            <stop offset="49.223%" stop-color="#D47C1D"/>
            <stop offset="100%" stop-color="#F3CF57"/>
        </linearGradient>
        <linearGradient id="bb" x1="86.825%" x2="10.017%" y1="16.966%" y2="87.931%">
            <stop offset="0%" stop-color="#F9E570"/>
            <stop offset="100%" stop-color="#EDA720"/>
        </linearGradient>
        <linearGradient id="cc" x1="85.459%" x2="22.015%" y1="85.614%" y2="13.172%">
            <stop offset="0%" stop-color="#FFDF81"/>
            <stop offset="53.047%" stop-color="#E2AE31"/>
            <stop offset="100%" stop-color="#D9A34A"/>
        </linearGradient>
        <linearGradient id="dd" x1="50%" x2="50%" y1="50.481%" y2="57.645%">
            <stop offset="0%" stop-color="#F9E570"/>
            <stop offset="100%" stop-color="#F6C73A"/>
        </linearGradient>
    </defs>
    <g fill="none" fill-rule="evenodd">
        <rect width="58" height="56" fill="url(#aa)" rx="28"/>
        <ellipse cx="27" cy="28" fill="#FFEE89" rx="27" ry="28"/>
        <ellipse cx="27" cy="28" fill="url(#bb)" rx="24.5" ry="25"/>
        <path fill="url(#cc)" fill-rule="nonzero" d="M27 52c12.974 0 23.5-10.74 23.5-24S39.974 4 27 4 3.5 14.74 3.5 28 14.026 52 27 52zm0 1C13.469 53 2.5 41.807 2.5 28S13.469 3 27 3s24.5 11.193 24.5 25S40.531 53 27 53z"/>
        <path fill="#F3CF57" d="M47.15 8.744l2.344.004c.142.144.283.29.422.436l-2.372-.004c-.128-.148-.263-.29-.394-.436zm1.188 1.405l2.461.005c.126.145.248.295.371.443l-2.495-.005c-.112-.148-.222-.298-.337-.444zm1.044 1.417l2.559.005c.114.15.23.3.341.453l-2.596-.005c-.101-.151-.201-.304-.304-.453zm-6.829-6.938l1.725.003c.22.135.44.27.655.41l-1.809-.004c-.187-.141-.38-.273-.57-.409zM38.01 2h.582c.378.125.753.258 1.124.398l-.887-.002c-.272-.134-.543-.271-.82-.396zm2.505 1.3l1.316.003c.272.13.54.266.806.404l-1.464-.003c-.218-.136-.436-.273-.658-.403zm5.303 4.054l2.187.004c.163.142.326.28.485.425l-2.247-.004a30.995 30.995 0 0 0-.425-.425zM44.309 5.98l1.979.004c.187.138.376.275.56.418l-2.065-.004c-.159-.14-.314-.282-.474-.418zm6.81 8.446l2.718.005c.09.155.18.31.267.466l-2.737-.005c-.08-.157-.166-.31-.249-.466zm3.157 10.099l2.99.006c.022.174.039.35.058.525l-2.987-.006c-.018-.176-.04-.35-.061-.525zm3.137 1.452c.013.177.024.354.034.531l-2.995-.006c-.01-.178-.025-.354-.037-.531l2.998.006zm-5.58-10.114l2.782.006c.079.157.15.317.227.475l-2.796-.006c-.07-.159-.14-.317-.213-.475zm2.232 7.218l2.968.007c.032.171.063.343.092.515l-2.975-.006a29.974 29.974 0 0 0-.085-.516zM47.06 47.6l2.326.007c-.142.14-.288.277-.433.416l-2.269-.007c.129-.136.25-.277.376-.416zm5.394-30.296l2.824.006c.07.161.14.321.207.483l-2.852-.005c-.06-.161-.116-.324-.18-.484zm.525 1.446l2.874.006c.06.163.116.327.172.49l-2.891-.006c-.052-.163-.1-.328-.155-.49zm.44 1.44l2.914.007c.05.166.096.334.143.501l-2.925-.006c-.043-.168-.086-.335-.132-.501zm.361 1.446l2.942.006c.041.17.084.338.122.508l-2.956-.006c-.035-.17-.07-.34-.108-.508zm-3.477-8.643l2.652.005c.1.152.196.307.293.46l-2.667-.005c-.09-.155-.185-.307-.278-.46zm3.408 21.94c1 .002 1.977.005 2.93.009-.043.168-.09.336-.136.504l-2.923-.01c.042-.167.09-.334.13-.504zm.3-1.44l2.954.01c-.034.17-.065.342-.102.511l-2.954-.009c.034-.17.07-.34.101-.511zm-.678 2.878l2.897.009c-.052.166-.108.33-.164.495l-2.889-.009c.052-.165.108-.329.156-.495zm-.46 1.433l2.858.009c-.06.161-.12.324-.183.484l-2.853-.008c.06-.162.122-.322.178-.485zm1.61-10.388l3.002.007c.004.18.01.36.011.54l-3-.006c-.001-.18-.008-.36-.013-.54zm-.003 1.543l3.002.008c-.006.183-.012.366-.02.548l-2.994-.008c.008-.182.007-.366.012-.548zm-.243 3.09l2.976.009c-.025.174-.05.35-.079.522l-2.971-.008c.025-.175.051-.348.074-.523zm-1.907 7.185l2.817.008c-.07.16-.144.317-.218.475l-2.8-.01c.068-.156.136-.314.201-.473zm2.068-8.717l2.997.009c-.015.178-.038.355-.057.533l-2.984-.009c.018-.177.03-.355.044-.533zm-4.23 12.959l2.628.008c-.101.149-.206.296-.31.444l-2.596-.007c.095-.147.186-.296.279-.445zm-5.835 6.768l1.97.006c-.183.134-.365.269-.55.399l-1.917-.005c.165-.134.334-.262.497-.4zm-1.651 1.28l1.73.005c-.215.133-.43.264-.65.39l-1.626-.005c.184-.125.364-.258.546-.39zm3.088-2.587l2.17.006c-.159.136-.318.272-.48.405l-2.114-.005c.143-.134.284-.27.424-.406zm-4.964 3.836l1.365.004c-.263.13-.53.254-.797.376l-1.227-.004c.22-.124.442-.245.659-.376zm8.45-7.908l2.534.008c-.113.147-.227.293-.343.438l-2.514-.008c.108-.146.219-.29.323-.438zm-10.712 9.122l.78.002c-.357.13-.718.252-1.083.366l-.49-.001c.266-.117.53-.24.793-.367zm9.674-7.745l2.44.008c-.127.143-.254.285-.383.426l-2.407-.007c.117-.141.235-.283.35-.427zm2.765-4.171l2.7.007c-.09.152-.18.305-.273.455l-2.673-.008c.085-.15.164-.303.246-.454zm.718-1.415l2.764.008c-.08.156-.163.312-.246.466l-2.741-.007c.076-.155.15-.311.223-.467z"/>
        <path fill="#CC8019" d="M31.585 37.565c.035-6.195.105-16.36.105-21.89 0-.14-.035-.175-.105-.175-.35 0-7.91 2.8-11.585 3.815.14.945.315 1.96.49 2.905 2.1-.28 3.71-.525 5.39-.735v15.87c0 .105-.07.21-.175.21l-4.935.105c-.035.98-.035 1.995-.035 2.94 2.94 0 5.46-.035 7.77-.035h7.84c.035-.945.07-1.96.035-2.94l-4.795-.07z"/>
        <path fill="url(#dd)" d="M30.585 36.565c.035-6.195.105-16.36.105-21.89 0-.14-.035-.175-.105-.175-.35 0-7.91 2.8-11.585 3.815.14.945.315 1.96.49 2.905 2.1-.28 3.71-.525 5.39-.735v15.87c0 .105-.07.21-.175.21l-4.935.105c-.035.98-.035 1.995-.035 2.94 2.94 0 5.46-.035 7.77-.035h7.84c.035-.945.07-1.96.035-2.94l-4.795-.07z"/>
    </g>
</svg>
